<?xml version="1.0" encoding="UTF-8"?>
<svg version="1.1" viewBox="0 0 25 25" xmlns="http://www.w3.org/2000/svg" xmlns:xlink="http://www.w3.org/1999/xlink">
    <!--Generated by IJSVG (https://github.com/curthard89/IJSVG)-->
    <g fill="#000000">
        <path d="M20.0119,0.589131l1.65089e-07,-9.43956e-11c-1.20116,0.000686787 -2.36193,0.433756 -3.27,1.22l-4.37102e-08,3.52224e-08c-0.259596,0.209186 -0.388967,0.540226 -0.34,0.87l-6.38517e-08,-3.29646e-07c0.0689747,0.356095 0.325363,0.646923 0.67,0.76l-6.77721e-07,-2.68125e-07c2.32474,0.919732 4.24132,2.64465 5.4,4.86l3.11857e-08,7.0094e-08c0.148315,0.333358 0.466416,0.559478 0.83,0.59h0.06l1.79495e-08,-9.45516e-10c0.309424,-0.0162993 0.593813,-0.175114 0.77,-0.43l1.47554e-07,-2.14568e-07c0.580368,-0.843951 0.887549,-1.84578 0.88,-2.87v-1.66194e-07c0,-2.76142 -2.23858,-5 -5,-5c-4.42092e-08,0 -1.2321e-07,0 -1.67419e-07,3.55271e-15Zm3.33,7.24l1.98023e-07,3.69638e-07c-1.28157,-2.39223 -3.37318,-4.24987 -5.9,-5.24l6.67803e-08,-5.6012e-08c1.69259,-1.41966 4.21557,-1.19841 5.63523,0.494181c0.589874,0.703277 0.919924,1.58803 0.934772,2.50582l1.51179e-07,2.10099e-05c0.00578731,0.804579 -0.231201,1.5922 -0.680012,2.26Zm-15.33,-4.36l-3.12567e-08,1.02554e-08c0.344637,-0.113077 0.601025,-0.403905 0.67,-0.76l1.64879e-08,-1.11039e-07c0.0489673,-0.329774 -0.0804044,-0.660814 -0.34,-0.87v0l-1.68054e-07,-1.50045e-07c-2.05987,-1.83913 -5.22063,-1.66019 -7.05976,0.399681c-0.822757,0.921507 -1.27525,2.11497 -1.27024,3.35032l-8.15899e-08,7.1145e-06c-0.0118938,1.03718 0.302987,2.05179 0.900004,2.9l3.06893e-08,4.43975e-08c0.176187,0.254886 0.460576,0.413701 0.77,0.43h0.06l1.45998e-08,-1.22561e-09c0.363584,-0.0305219 0.681685,-0.256642 0.83,-0.59l-3.31438e-07,6.30403e-07c1.16852,-2.22255 3.10031,-3.94838 5.43999,-4.86001Zm0,-1.25l-0.35,0.37v0Zm-6.33,5.63l-6.20334e-08,-9.31922e-08c-0.445274,-0.668932 -0.678748,-1.45647 -0.67,-2.26l-3.05153e-08,1.88625e-06c0.0357338,-2.20885 1.85533,-3.97051 4.06418,-3.93477c0.917786,0.0148475 1.80254,0.344897 2.50582,0.934772l6.11769e-07,-2.43331e-07c-2.52454,1.00414 -4.61384,2.8668 -5.9,5.26Zm11.33,5l4.31,3.35l-0.61,0.79l-4.5,-3.5l-3.89788e-08,-2.92341e-08c-0.125903,-0.0944272 -0.2,-0.242621 -0.2,-0.4v-5.5h1Zm-0.5,-9.26l3.5056e-07,-1.7554e-10c-5.2467,0.00262714 -9.49787,4.25805 -9.49524,9.50476c0.00127124,2.5388 1.01868,4.97147 2.82524,6.75524l-2.74,4l0.82,0.57l2.67,-3.86l-9.00744e-07,-7.18184e-07c3.45773,2.75692 8.36227,2.75692 11.82,1.43637e-06l2.66,3.85l0.82,-0.57l-2.73,-3.94l-1.06134e-07,1.0323e-07c3.76108,-3.65817 3.84451,-9.67266 0.186337,-13.4337c-1.79494,-1.84543 -4.26197,-2.88339 -6.83634,-2.87626Zm0,18l-3.71547e-07,-7.10543e-15c-4.69442,-2.052e-07 -8.5,-3.80558 -8.5,-8.5c2.052e-07,-4.69442 3.80558,-8.5 8.5,-8.5c4.69442,2.052e-07 8.5,3.80558 8.5,8.5l2.89393e-07,-0.000249524c-0.00537307,4.69214 -3.80762,8.4946 -8.49975,8.50025Z" transform="translate(-0.0118938, 0.410869)"></path>
    </g>
</svg>