<?xml version="1.0" encoding="UTF-8"?>
<svg version="1.1" viewBox="0 0 25 25" xmlns="http://www.w3.org/2000/svg" xmlns:xlink="http://www.w3.org/1999/xlink">
    <!--Generated by IJSVG (https://github.com/curthard89/IJSVG)-->
    <g fill="#000000">
        <path d="M24.71,12.1974l-12,-12l-1.5177e-08,-1.5302e-08c-0.19446,-0.196061 -0.51104,-0.197359 -0.707101,-0.00289913c-0.000970346,0.000962421 -0.00193674,0.00192882 -0.00289916,0.00289916l-12,12l0.71,0.71l2.15,-2.18v13.07l1.42109e-14,1.88745e-07c1.04241e-07,0.690356 0.559644,1.25 1.25,1.25h5.75v-6.25l8.88178e-15,1.13247e-07c-6.25445e-08,-0.414214 0.335786,-0.75 0.75,-0.75h3.5h-3.27835e-08c0.414214,-1.81059e-08 0.75,0.335786 0.75,0.75v6.25h5.75l5.86076e-08,3.55271e-15c0.690356,3.01764e-08 1.25,-0.559644 1.25,-1.25c0,-3.67634e-08 0,-7.64835e-08 0,-1.13247e-07v-13l2.15,2.15Z" transform="translate(0.14, -0.0473591)"></path>
    </g>
</svg>