<?xml version="1.0" encoding="UTF-8"?>
<svg version="1.1" viewBox="0 0 25 25" xmlns="http://www.w3.org/2000/svg" xmlns:xlink="http://www.w3.org/1999/xlink">
    <!--Generated by IJSVG (https://github.com/curthard89/IJSVG)-->
    <g fill="#000000">
        <path d="M25.0035,10.3751c0,0 0,0 0,0l-3.27,-9l2.46718e-09,7.43405e-09c-0.27283,-0.822085 -1.04384,-1.37511 -1.91,-1.37h-14.82l-1.13877e-07,-4.87717e-10c-0.857197,-0.00367121 -1.62142,0.539327 -1.9,1.35l-3.1,8.99l-1.88912e-10,2.9536e-09c-0.0012779,0.0199796 -0.0012779,0.0400204 3.77824e-10,0.06l-1.23969e-08,1.18363e-07c-0.00348168,0.0332424 -0.00348168,0.0667576 2.47938e-08,0.1v9.25l1.06581e-14,6.74281e-08c1.04241e-07,0.690356 0.559644,1.25 1.25,1.25h22.5h2.69443e-08c0.690356,-5.21204e-08 1.25,-0.559644 1.25,-1.25v-9.25l8.53603e-09,-6.24548e-08c0.0058952,-0.0431328 0.0058952,-0.0868672 -1.70721e-08,-0.13Zm-20.95,-8.69l-8.29116e-09,2.45478e-08c0.137572,-0.407312 0.520084,-0.68111 0.95,-0.68h14.82l-5.4134e-08,-2.30287e-11c0.42103,0.000179112 0.79685,0.264052 0.94,0.66l3,8.34h-5.51l-5.46392e-08,1.77636e-15c-0.690356,3.01764e-08 -1.25,0.559644 -1.25,1.25c3.55271e-15,3.03138e-08 3.55271e-15,6.12472e-08 7.10543e-15,9.15609e-08v3.5v0c0,0.138071 -0.111929,0.25 -0.25,0.25h-8.5l-1.09279e-08,3.55271e-15c-0.138071,-6.03528e-09 -0.25,-0.111929 -0.25,-0.25c1.77636e-15,-1.82872e-08 3.55271e-15,-3.6352e-08 8.88178e-15,-5.46392e-08v-3.5v1.09278e-08c0,-0.690356 -0.559644,-1.25 -1.25,-1.25h-5.55Zm19.7,18.32h-22.5h-1.09278e-08c-0.138071,-6.03528e-09 -0.25,-0.111929 -0.25,-0.25c0,0 0,0 0,0v-8.75h5.75h-1.09278e-08c0.138071,-6.03528e-09 0.25,0.111929 0.25,0.25v3.5l1.42109e-14,-1.77817e-07c-1.04241e-07,0.690356 0.559644,1.25 1.25,1.25c0,0 1.09279e-08,0 1.09279e-08,0h8.5l-2.58339e-08,-3.55271e-15c0.690356,1.12473e-07 1.25,-0.559644 1.25,-1.25c1.06581e-14,-5.98348e-08 1.77636e-14,-1.17982e-07 1.77636e-14,-1.77817e-07v-3.5l3.55271e-15,3.7749e-08c-2.08482e-08,-0.138071 0.111929,-0.25 0.25,-0.25h5.75v8.75v-2.5834e-08c0,0.138071 -0.111929,0.25 -0.25,0.25Z" transform="translate(-0.0034817, 1.99489)"></path>
    </g>
</svg>